<?xml version="1.0" standalone="no"?>
<!DOCTYPE svg PUBLIC "-//W3C//DTD SVG 20010904//EN"
 "http://www.w3.org/TR/2001/REC-SVG-20010904/DTD/svg10.dtd">
<svg version="1.0" xmlns="http://www.w3.org/2000/svg"
 width="126.000000pt" height="126.000000pt" viewBox="0 0 126.000000 126.000000"
 preserveAspectRatio="xMidYMid meet">
<metadata>
Created by potrace 1.14, written by Peter Selinger 2001-2017
</metadata>
<g transform="translate(0.000000,126.000000) scale(0.100000,-0.100000)"
fill="#000000" stroke="none">
<path d="M360 1201 c0 -11 5 -32 10 -47 24 -63 31 -244 9 -244 -5 0 -7 6 -3
13 4 6 -3 3 -14 -8 -58 -55 -145 -121 -170 -129 -12 -4 -35 -21 -52 -37 -16
-17 -30 -28 -30 -25 0 9 -60 -22 -82 -42 -29 -25 -21 -35 24 -28 24 3 99 8
167 11 l124 6 -7 -28 c-4 -15 -8 -36 -9 -45 -1 -9 -5 -14 -9 -12 -4 3 -19 -21
-33 -53 -39 -88 -57 -124 -86 -173 -79 -137 -159 -294 -159 -310 0 -6 -5 -8
-12 -4 -6 4 -8 3 -5 -3 9 -15 57 -3 57 13 0 8 6 14 13 14 7 0 29 14 48 31 49
45 77 62 89 54 5 -3 14 4 19 17 21 54 261 268 300 268 12 0 21 -4 21 -10 0 -5
7 -10 15 -10 8 0 15 -4 15 -10 0 -5 6 -10 14 -10 18 0 100 -57 154 -108 44
-41 152 -112 170 -112 6 0 12 -5 14 -12 2 -6 11 -12 19 -14 7 -1 22 -5 31 -9
14 -6 17 -1 15 28 -2 20 -10 44 -18 54 -9 10 -19 27 -22 38 -11 41 -47 129
-54 134 -5 3 -10 20 -11 36 -2 17 -8 32 -13 33 -5 2 -9 12 -9 22 0 10 -4 20
-8 22 -4 2 -15 25 -23 52 l-16 49 36 34 c19 18 41 33 47 33 7 0 22 11 35 25
13 13 30 25 37 25 7 0 10 5 7 10 -3 6 -1 10 5 10 6 0 47 27 90 60 43 33 83 60
88 60 16 0 44 38 37 50 -8 13 -72 5 -91 -11 -6 -5 -13 -7 -16 -4 -3 3 -35 -6
-71 -20 -37 -14 -69 -25 -72 -25 -3 0 -10 -2 -17 -4 -32 -10 -154 -36 -167
-36 -13 0 -12 29 3 95 7 31 15 85 20 141 3 29 8 63 12 78 4 15 1 32 -6 41 -11
13 -16 12 -42 -8 -52 -39 -98 -84 -98 -96 0 -6 -7 -11 -15 -11 -8 0 -15 -5
-15 -11 0 -5 -4 -8 -9 -5 -5 3 -14 -1 -21 -9 -11 -13 -19 -9 -60 35 -26 27
-51 50 -57 50 -6 0 -19 11 -29 25 -10 14 -25 25 -32 25 -7 0 -23 11 -36 25
-28 30 -46 32 -46 6z"/>
</g>
</svg>
